<svg width="360" height="640" viewBox="0 0 360 640" fill="none" xmlns="http://www.w3.org/2000/svg">
<g clip-path="url(#clip0_1_4)">
<rect width="360" height="640" fill="white"/>
<ellipse cy="427.5" rx="156" ry="150.5" fill="#F5E79B"/>
<ellipse cx="360" cy="193.5" rx="156" ry="150.5" fill="#F5E79B"/>
<path d="M0 286C34.6667 299.667 108.8 342.9 128 406.5C152 486 131 513 104 545C82.4 570.6 25.6667 596.333 0 606" stroke="black"/>
<path d="M396.154 371.906C360.153 362.288 281.567 327.806 255.228 266.815C222.304 190.577 240.083 161.355 263.251 126.48C281.785 98.5805 335.208 66.5352 359.602 54" stroke="black"/>
<path d="M375.365 330.506C340.455 317.474 265.545 275.601 245.188 212.362C219.741 133.313 240.245 105.934 266.657 73.447C287.786 47.4571 344.04 20.6929 369.526 10.5595" stroke="black"/>
<path d="M-5 258C29.6667 271.667 103.8 314.9 123 378.5C147 458 126 485 99 517C77.4 542.6 20.6667 568.333 -5 578" stroke="black"/>
</g>
<defs>
<clipPath id="clip0_1_4">
<rect width="360" height="640" fill="white"/>
</clipPath>
</defs>
</svg>
