<svg width="360" height="640" viewBox="0 0 360 640" fill="none" xmlns="http://www.w3.org/2000/svg">
<g clip-path="url(#clip0_132_4)">
<rect width="360" height="640" fill="white"/>
<path d="M-7 -29V216.49C7.32184 225.908 66.6552 188.865 75.5211 171.913C84.387 154.961 78.249 82.7576 91.2069 39.4359C101.573 4.77843 148.722 -20.6286 171 -29H-7Z" fill="#F5E79B" stroke="black"/>
<path d="M367.183 655.109L366.005 409.621C351.638 400.272 292.483 437.6 283.699 454.594C274.915 471.589 281.399 543.761 268.649 587.145C258.449 621.851 211.423 647.484 189.185 655.963L367.183 655.109Z" fill="#F5E79B" stroke="black"/>
<path d="M0.296326 239.147C26.1394 226.063 79.3315 190.457 85.3551 152.695C92.8846 105.492 69.7396 47.7305 78.0135 29.6615C86.2875 11.5924 89.8596 -4.79611 116.47 -22" stroke="black"/>
<path d="M358.6 387C332.82 400.207 279.799 436.069 273.957 473.859C266.654 521.097 290.076 578.747 281.889 596.856C273.702 614.964 270.208 631.37 243.681 648.701" stroke="black"/>
</g>
<defs>
<clipPath id="clip0_132_4">
<rect width="360" height="640" fill="white"/>
</clipPath>
</defs>
</svg>
