<svg width="360" height="640" viewBox="0 0 360 640" fill="none" xmlns="http://www.w3.org/2000/svg">
<g clip-path="url(#clip0_135_42)">
<rect width="360" height="640" fill="white"/>
<path d="M365 0V245.49C350.678 254.908 291.345 217.865 282.479 200.913C273.613 183.961 279.751 111.758 266.793 68.4359C256.427 33.7784 209.278 8.37136 187 0H365Z" fill="#F5E79B" stroke="black"/>
<path d="M-7.21375 654.109L-6.03584 408.621C8.33103 399.272 67.4859 436.6 76.2704 453.594C85.0549 470.589 78.5706 542.761 91.3204 586.145C101.52 620.851 148.546 646.484 170.784 654.963L-7.21375 654.109Z" fill="#F5E79B" stroke="black"/>
<path d="M357.704 268.147C331.861 255.063 278.668 219.457 272.645 181.695C265.115 134.492 288.26 76.7305 279.986 58.6615C271.712 40.5925 268.14 24.2039 241.53 7.00002" stroke="black"/>
<path d="M1.36926 386C27.1493 399.207 80.1699 435.069 86.0122 472.859C93.3152 520.097 69.8933 577.747 78.0804 595.856C86.2676 613.964 89.7611 630.37 116.288 647.701" stroke="black"/>
</g>
<defs>
<clipPath id="clip0_135_42">
<rect width="360" height="640" fill="white"/>
</clipPath>
</defs>
</svg>
