<svg width="360" height="640" viewBox="0 0 360 640" fill="none" xmlns="http://www.w3.org/2000/svg">
<g clip-path="url(#clip0_1_3)">
<rect width="360" height="640" fill="white"/>
<ellipse cx="415" cy="643" rx="226" ry="213" fill="#F5E79B"/>
<ellipse cx="108.5" cy="198.5" rx="44.5" ry="42.5" fill="#F5E79B"/>
<ellipse cx="256.5" cy="334.5" rx="44.5" ry="42.5" fill="#F5E79B"/>
<ellipse cx="276.5" cy="93.5" rx="44.5" ry="42.5" fill="#F5E79B"/>
<ellipse cx="73.5" cy="268.5" rx="44.5" ry="42.5" fill="#F5E79B"/>
<ellipse cx="81.5" cy="457.5" rx="44.5" ry="42.5" fill="#F5E79B"/>
<path d="M165.531 654.515C166.037 633.094 173.942 582.752 201.515 552.754C235.981 515.257 270.043 486.308 302.439 476.523C328.356 468.694 379.872 460.912 402.39 458" stroke="black"/>
<path d="M214.043 642.319C216.722 620.517 226.067 568.248 242.013 533.587C261.946 490.26 278.906 465.248 311.61 448.443C337.774 434.999 362.692 427.414 371.88 425.301L387.326 424" stroke="black"/>
<path d="M119.632 170.885C146.567 173.833 153.899 193.131 154.198 202.411C158.782 216.741 154.198 222.473 145.22 238.441C136.242 254.408 111.552 253.999 97.6356 253.999C83.7194 253.999 63.9674 235.984 60.8251 222.473C57.6827 208.962 63.9674 188.9 72.0478 182.349C80.1282 175.798 85.964 167.2 119.632 170.885Z" stroke="black"/>
<path d="M96.6322 400.885C123.567 403.833 130.899 423.131 131.198 432.411C135.782 446.741 131.198 452.473 122.22 468.441C113.242 484.408 88.5518 483.999 74.6356 483.999C60.7194 483.999 40.9674 465.984 37.8251 452.473C34.6827 438.962 40.9674 418.9 49.0478 412.349C57.1282 405.798 62.964 397.2 96.6322 400.885Z" stroke="black"/>
<path d="M271.632 278.885C298.567 281.833 305.899 301.131 306.198 310.411C310.782 324.741 306.198 330.473 297.22 346.441C288.242 362.408 263.552 361.999 249.636 361.999C235.719 361.999 215.967 343.984 212.825 330.473C209.683 316.962 215.967 296.9 224.048 290.349C232.128 283.798 237.964 275.2 271.632 278.885Z" stroke="black"/>
<path d="M119.632 156.885C146.567 159.833 153.899 179.131 154.198 188.411C158.782 202.741 154.198 208.473 145.22 224.441C136.242 240.408 111.552 239.999 97.6356 239.999C83.7194 239.999 63.9674 221.984 60.8251 208.473C57.6827 194.962 63.9674 174.9 72.0478 168.349C80.1282 161.798 85.964 153.2 119.632 156.885Z" stroke="black"/>
<path d="M288.632 51.8852C315.567 54.8331 322.899 74.1308 323.198 83.4111C327.782 97.7411 323.198 103.473 314.22 119.441C305.242 135.408 280.552 134.999 266.636 134.999C252.719 134.999 232.967 116.984 229.825 103.473C226.683 89.962 232.967 69.9 241.048 63.3492C249.128 56.7983 254.964 48.2004 288.632 51.8852Z" stroke="black"/>
<path d="M85.6322 226.885C112.567 229.833 119.899 249.131 120.198 258.411C124.782 272.741 120.198 278.473 111.22 294.441C102.242 310.408 77.5518 309.999 63.6356 309.999C49.7194 309.999 29.9674 291.984 26.8251 278.473C23.6827 264.962 29.9674 244.9 38.0478 238.349C46.1282 231.798 51.964 223.2 85.6322 226.885Z" stroke="black"/>
<path d="M92.6322 416.885C119.567 419.833 126.899 439.131 127.198 448.411C131.782 462.741 127.198 468.473 118.22 484.441C109.242 500.408 84.5518 499.999 70.6356 499.999C56.7194 499.999 36.9674 481.984 33.8251 468.473C30.6827 454.962 36.9674 434.9 45.0478 428.349C53.1282 421.798 58.964 413.2 92.6322 416.885Z" stroke="black"/>
<path d="M264.632 292.885C291.567 295.833 298.899 315.131 299.198 324.411C303.782 338.741 299.198 344.473 290.22 360.441C281.242 376.408 256.552 375.999 242.636 375.999C228.719 375.999 208.967 357.984 205.825 344.473C202.683 330.962 208.967 310.9 217.048 304.349C225.128 297.798 230.964 289.2 264.632 292.885Z" stroke="black"/>
<path d="M295.632 40.8852C322.567 43.8331 329.899 63.1308 330.198 72.4111C334.782 86.7411 330.198 92.4731 321.22 108.441C312.242 124.408 287.552 123.999 273.636 123.999C259.719 123.999 239.967 105.984 236.825 92.4731C233.683 78.962 239.967 58.9 248.048 52.3492C256.128 45.7983 261.964 37.2004 295.632 40.8852Z" stroke="black"/>
<path d="M92.6322 215.885C119.567 218.833 126.899 238.131 127.198 247.411C131.782 261.741 127.198 267.473 118.22 283.441C109.242 299.408 84.5518 298.999 70.6356 298.999C56.7194 298.999 36.9674 280.984 33.8251 267.473C30.6827 253.962 36.9674 233.9 45.0478 227.349C53.1282 220.798 58.964 212.2 92.6322 215.885Z" stroke="black"/>
<rect x="144.5" y="356.5" width="20" height="7" rx="3.5" fill="white" stroke="black"/>
</g>
<defs>
<clipPath id="clip0_1_3">
<rect width="360" height="640" fill="white"/>
</clipPath>
</defs>
</svg>
